<svg width="48" height="49" viewBox="0 0 48 49" fill="none" xmlns="http://www.w3.org/2000/svg">
<path fill-rule="evenodd" clip-rule="evenodd" d="M15.75 9.44737C15.75 5.61044 19.4436 2.5 24 2.5C28.5563 2.5 32.25 5.61044 32.25 9.44737V10.6053C32.25 15.0817 27.9407 18.7105 22.625 18.7105H4.75C3.23122 18.7105 2 17.6737 2 16.3947C2 15.1158 3.23122 14.0789 4.75 14.0789H22.625C24.9032 14.0789 26.75 12.5237 26.75 10.6053V9.44737C26.75 8.16839 25.5188 7.13158 24 7.13158C22.4812 7.13158 21.25 8.16839 21.25 9.44737V10.0789C21.25 11.3579 20.0188 12.3947 18.5 12.3947C16.9812 12.3947 15.75 11.3579 15.75 10.0789V9.44737ZM26.7501 38.3947C26.7501 42.8712 31.0594 46.5 36.3751 46.5C41.6908 46.5 46.0001 42.8712 46.0001 38.3947V37.2368C46.0001 32.1209 41.0752 27.9737 35.0001 27.9737H7.50012C5.98134 27.9737 4.75012 29.0105 4.75012 30.2895C4.75012 31.5685 5.98134 32.6053 7.50012 32.6053H35.0001C38.0377 32.6053 40.5001 34.6789 40.5001 37.2368V38.3947C40.5001 40.3132 38.6533 41.8684 36.3751 41.8684C34.0969 41.8684 32.2501 40.3132 32.2501 38.3947V37.2368C32.2501 35.9579 31.0189 34.9211 29.5001 34.9211C27.9813 34.9211 26.7501 35.9579 26.7501 37.2368V38.3947ZM10.25 21.0263C8.73122 21.0263 7.5 22.0631 7.5 23.3421C7.5 24.6211 8.73122 25.6579 10.25 25.6579H37.75C39.2688 25.6579 40.5 24.6211 40.5 23.3421C40.5 22.0631 39.2688 21.0263 37.75 21.0263H10.25Z" fill="white"/>
</svg>
